<?xml version="1.0" encoding="UTF-8"?>
<svg width="120" height="40" viewBox="0 0 120 40" xmlns="http://www.w3.org/2000/svg">
  <g fill="none" fill-rule="evenodd">
    <path d="M20.3 0h79.4c11.3 0 20.3 9 20.3 20s-9 20-20.3 20H20.3C9 40 0 31 0 20S9 0 20.3 0z" fill="#E50019"/>
    <path d="M31.2 12.5v15h-4.5v-15h4.5zm28.3 0l-6.8 15h-4.8l-6.8-15h4.8l4.4 10.2 4.4-10.2h4.8zm15.7 0v3.6h-7.5v2.2h6.8v3.3h-6.8v2.3h7.7v3.6H63.2v-15h12zm17.5 9.6h-3.8v5.4h-4.5v-15h8.8c4.2 0 6.8 2.1 6.8 4.8 0 2-1.1 3.5-2.9 4.2l3.4 6h-5l-2.8-5.4zm.2-3.4c1.5 0 2.4-.7 2.4-1.8s-.9-1.8-2.4-1.8h-4v3.6h4z" fill="#FFF"/>
    <path d="M23.5 23.4c-1.9 0-3.4-1.5-3.4-3.4s1.5-3.4 3.4-3.4 3.4 1.5 3.4 3.4-1.5 3.4-3.4 3.4z" fill="#FFF"/>
  </g>
</svg>
